# xmcd
#
# Track frame offsets:
#	150
#	14982
#	25741
#	41737
#	61342
#	75072
#	89520
#	103993
#	120591
#	136536
#	148991
#	163088
#	179150
#
# Disc length: 2596 seconds
#
# Revision: 0
# Processed by: cddbd v1.4PL0 Copyright (c) Steve Scherf et al.
# Submitted via: dBpowerAMP V4.0
#
DISCID=b40a220d
DTITLE=Carl Manchaca - Carl Manchaca
DYEAR=2000
DGENRE=Country
TTITLE0=She Wasn't With 'Em
TTITLE1=Rollin' Sevens
TTITLE2=Too Tender, Too Late
TTITLE3=Goin' Home
TTITLE4=The Years Just Fly
TTITLE5=Holed Up In Some Honky Tonk
TTITLE6=I'll Just Believe In The Neon
TTITLE7=Settle For Love
TTITLE8=Temporary Angel
TTITLE9=All Dressed Up With No Place To Go
TTITLE10=Friday Night's Woman
TTITLE11=A Lie Don't Care Who Tells It
TTITLE12=Yesterday's Wine
EXTD=
EXTT0=
EXTT1=
EXTT2=
EXTT3=
EXTT4=
EXTT5=
EXTT6=
EXTT7=
EXTT8=
EXTT9=
EXTT10=
EXTT11=
EXTT12=
PLAYORDER=
